<?xml version="1.0" encoding="utf-8"?>
<!-- Generator: Adobe Illustrator 21.0.0, SVG Export Plug-In . SVG Version: 6.00 Build 0)  -->
<svg version="1.1" id="Layer_1" xmlns="http://www.w3.org/2000/svg" xmlns:xlink="http://www.w3.org/1999/xlink" x="0px" y="0px"
	 viewBox="0 0 512 512" style="enable-background:new 0 0 512 512;" xml:space="preserve">
<g>
	<path d="M355.1,165.6c0-2.5-2.1-4.6-4.6-4.6l-37.7,0.2L256,228.9l-56.7-67.7l-37.8-0.2c-2.5,0-4.6,2-4.6,4.6c0,1.1,0.4,2.1,1.1,3
		l74.3,88.6L158,345.7c-0.7,0.8-1.1,1.9-1.1,3c0,2.5,2.1,4.6,4.6,4.6l37.8-0.2l56.7-67.7l56.7,67.7l37.7,0.2c2.5,0,4.6-2,4.6-4.6
		c0-1.1-0.4-2.1-1.1-3l-74.2-88.5l74.3-88.6C354.7,167.8,355.1,166.7,355.1,165.6z"/>
	<path d="M256,0C114.6,0,0,114.6,0,256c0,141.4,114.6,256,256,256c141.4,0,256-114.6,256-256C512,114.6,397.4,0,256,0z M256,468.6
		c-117.4,0-212.6-95.2-212.6-212.6c0-117.4,95.2-212.6,212.6-212.6c117.4,0,212.6,95.2,212.6,212.6
		C468.6,373.4,373.4,468.6,256,468.6z"/>
</g>
</svg>
