<svg width="100%" height="100%" viewBox="0 0 24 24" version="1.1" xmlns="http://www.w3.org/2000/svg" xmlns:xlink="http://www.w3.org/1999/xlink" xml:space="preserve" xmlns:serif="http://www.serif.com/" style="fill-rule: evenodd; clip-rule: evenodd; stroke-linejoin: round; stroke-miterlimit: 2;">
               <path id="Facebook" d="M24,12c0,6.627 -5.373,12 -12,12c-6.627,0 -12,-5.373 -12,-12c0,-6.627
                  5.373,-12 12,-12c6.627,0 12,5.373
                  12,12Zm-11.278,0l1.294,0l0.172,-1.617l-1.466,0l0.002,-0.808c0,-0.422
                  0.04,-0.648 0.646,-0.648l0.809,0l0,-1.616l-1.295,0c-1.555,0 -2.103,0.784
                  -2.103,2.102l0,0.97l-0.969,0l0,1.617l0.969,0l0,4.689l1.941,0l0,-4.689Z"></path>
            </svg>