<svg xmlns="http://www.w3.org/2000/svg" viewBox="0 0 199.89 66.28"><defs><style>.cls-1{fill:#151f2d;}</style></defs><g id="Layer_2" data-name="Layer 2"><g id="Layer_1-2" data-name="Layer 1"><path class="cls-1" d="M0,49.15v-.84A31.79,31.79,0,0,1,5.9,47h0V2.17A32.5,32.5,0,0,1,.21.84h0V0H18V.92a41.21,41.21,0,0,1-5.62,1.25h0V46.69H32.16a14.72,14.72,0,0,1,1-4A19.16,19.16,0,0,1,34.82,39H36.3l-1,10.11ZM49.36,10.46a4,4,0,0,1-2.85-1.05,3.67,3.67,0,0,1-1.09-2.74h0A3.77,3.77,0,0,1,46.51,3.9a3.85,3.85,0,0,1,2.85-1.09h0A3.81,3.81,0,0,1,52.2,3.9a3.73,3.73,0,0,1,1.09,2.77h0A3.63,3.63,0,0,1,52.2,9.41a3.91,3.91,0,0,1-2.84,1.05ZM41.07,49.15v-.77a21.33,21.33,0,0,1,3.23-.88c1.27-.26,2.07-.41,2.39-.46h0V16.64a35.79,35.79,0,0,1-4.91-1.19h0v-.57L53,13.76V47a42.06,42.06,0,0,1,5.62,1.34h0v.77ZM84.6,66.28v-.77a27.11,27.11,0,0,1,5.69-1.4h0V44.52a9.58,9.58,0,0,1-4.67,4A16.72,16.72,0,0,1,79,49.85h0q-7.72,0-12.18-4.46T62.35,31.24h0a21.28,21.28,0,0,1,2-9.69,14,14,0,0,1,5.59-6,15.92,15.92,0,0,1,8-2h0q7.72,0,12.36,5.12h0V13.62l11.23,1.19v.5a40,40,0,0,1-4.91,1.26h0v47.6a42.53,42.53,0,0,1,5.61,1.26h0v.85ZM79.76,47.39A11.1,11.1,0,0,0,85.37,46,9.4,9.4,0,0,0,89,42.34a10.43,10.43,0,0,0,1.26-5.06h0V21.63a15.23,15.23,0,0,0-4.59-4A11.39,11.39,0,0,0,80,16.08h0q-5.9,0-8.6,3.82t-2.7,11.28h0q0,7.44,2.59,11.82t8.43,4.39Zm24.5,1.76v-.77A24.8,24.8,0,0,1,109.88,47h0V16.57A25.76,25.76,0,0,1,105,15.31h0v-.5l10.47-1.19.56,6h.28a11,11,0,0,1,3.51-4.32A8.49,8.49,0,0,1,125,13.55h0a10.49,10.49,0,0,1,5.83,1.55h0l-1.19,3.29a6.38,6.38,0,0,0-3.93-1.32h0A8.46,8.46,0,0,0,120.41,19a17.4,17.4,0,0,0-4.21,4.87h0V47a34.86,34.86,0,0,1,5.62,1.34h0v.77Zm41.43.7q-5.62,0-8.56-2.59t-3-7.52h0q0-5.4,3.86-7.83a18.18,18.18,0,0,1,9.83-2.42h10.4V23.87q0-4-2.39-5.9a10.62,10.62,0,0,0-6.74-1.89h0a21.14,21.14,0,0,0-5.66.81A27.22,27.22,0,0,0,138.1,19h0l-.49-2.18A28.67,28.67,0,0,1,144,14.43a30.34,30.34,0,0,1,7.27-.88h0q6.24,0,9.83,2.71a8.57,8.57,0,0,1,3.57,7.19h0v23c1.64.33,3.26.7,4.85,1.13h0v.55l-11.23,1.12V44.16a16.93,16.93,0,0,1-6.15,4.39,17.2,17.2,0,0,1-6.42,1.3Zm2.24-2.59a11.34,11.34,0,0,0,5.87-1.8,12.89,12.89,0,0,0,4.46-4.17h0V32h-8.85q-4.49,0-6.75,2a7.23,7.23,0,0,0-2.24,5.66h0q0,3.8,2.07,5.68a7.73,7.73,0,0,0,5.44,1.91Zm38.55,2.59a26.69,26.69,0,0,1-8.14-1.12,15.36,15.36,0,0,1-5.69-3.09h0l.49-8.78h1.47a19.34,19.34,0,0,1,.67,3.51c.21,1.68.34,3.13.38,4.35h0q3.17,2.67,8.58,2.67h0a10.9,10.9,0,0,0,6.84-1.93,6.21,6.21,0,0,0,2.49-5.16h0a4.77,4.77,0,0,0-2.25-4.18A31.76,31.76,0,0,0,184.44,33h0q-3.85-1.47-6.17-2.63a12,12,0,0,1-4-3.2,7.85,7.85,0,0,1-1.65-5.12h0a6.91,6.91,0,0,1,3.72-6.36,18.57,18.57,0,0,1,9.34-2.14h0q7.93,0,12.28,3.65h0l-.63,7.24h-1.54a12.91,12.91,0,0,1-.67-2.89,24.74,24.74,0,0,1-.25-3.43h0A13.79,13.79,0,0,0,187,16h0a11.79,11.79,0,0,0-6,1.3,4.27,4.27,0,0,0-2.26,4h0a4.62,4.62,0,0,0,1.23,3.23,10.45,10.45,0,0,0,3.06,2.24,53.69,53.69,0,0,0,5,2.1h0a57.85,57.85,0,0,1,6.17,2.71,12.51,12.51,0,0,1,4,3.26,7.79,7.79,0,0,1,1.65,5.06h0a8.39,8.39,0,0,1-3.79,7.41,16.88,16.88,0,0,1-9.62,2.56Z"/></g></g></svg>