<svg xmlns="http://www.w3.org/2000/svg" viewBox="0 0 147.29 147.29"><defs><style>.cls-1{fill:#1ba3a4;}.cls-2{fill:#fff;}</style></defs><g id="Layer_2" data-name="Layer 2"><g id="Layer_1-2" data-name="Layer 1"><circle class="cls-1" cx="73.65" cy="73.65" r="73.65"/><path class="cls-2" d="M81.51,87.1H48.17c-.18,0-.26-.09-.26-.27h0V86a.23.23,0,0,1,.26-.26H49a10,10,0,0,0,4.95-1.18h0A3.79,3.79,0,0,0,55.34,83a4.81,4.81,0,0,0,.56-2.33h0V45.76c0-1.37-.88-2.41-2.65-3.14h0a9.81,9.81,0,0,0-3.92-.79h-.74a.24.24,0,0,1-.26-.27h0v-.79a.23.23,0,0,1,.26-.26H71c.18,0,.26.08.26.26h0v.79c0,.18-.08.27-.26.27H69.54a17.24,17.24,0,0,0-6,1h0a1.44,1.44,0,0,0-1,.87,7.19,7.19,0,0,0-.22,2.1h0V82.41a1.73,1.73,0,0,0,.6,1,1.68,1.68,0,0,0,1.19.5h13q3,0,5.79-3.47h0c.51-.62,1.14-1.44,1.88-2.46a12.94,12.94,0,0,1,1.4-1.74h0q1-.8,1.05,0h0a.82.82,0,0,1-.1.4h0l-5,9.78q-.3.6-.69.6ZM91.82,60.5h0a3.79,3.79,0,0,0,3.77,3.79,3.55,3.55,0,0,0,2.67-1.18,3.89,3.89,0,0,0,1.12-2.75,3.75,3.75,0,0,0-1.06-2.67,3.48,3.48,0,0,0-2.66-1.12,3.71,3.71,0,0,0-2.72,1.12A3.8,3.8,0,0,0,91.82,60.5Zm3.73,46.29h1.22q.67,0,1.35,0c.47,0,.76-.19.87-.5h0v-1.72L96.55,72.75c-.12-.86-.45-1.29-1-1.29h0q-.85,0-1,1.29h0l-2.45,31.79v1.72c0,.31.17.46.5.46h0Z"/></g></g></svg>