<?xml version="1.0" encoding="utf-8"?>
<svg version="1.1" id="Icons" xmlns="http://www.w3.org/2000/svg" xmlns:xlink="http://www.w3.org/1999/xlink" x="0px" y="0px" viewBox="0 0 32 32" xml:space="preserve">
<path d="M24,16c-4.4,0-8,3.6-8,8s3.6,8,8,8s8-3.6,8-8S28.4,16,24,16z M27,25h-2v2c0,0.6-0.4,1-1,1s-1-0.4-1-1v-2h-2
	c-0.6,0-1-0.4-1-1s0.4-1,1-1h2v-2c0-0.6,0.4-1,1-1s1,0.4,1,1v2h2c0.6,0,1,0.4,1,1S27.6,25,27,25z"/>
<g>
	<polygon points="17,2.6 17,8 22.4,8"/>
	<path d="M20.5,10H16c-0.6,0-1-0.4-1-1V2H4C3.4,2,3,2.4,3,3v26c0,0.6,0.4,1,1,1h12c-1.3-1.7-2-3.7-2-6c0-5.2,4-9.4,9-9.9v-1.6
		C23,11.1,21.9,10,20.5,10z"/>
</g>
</svg>
