<svg className="fill-current cursor-pointer text-gray-500 hover:text-gray-400" width="100%" height="100%" viewBox="0 0 24 24" version="1.1" xmlns="http://www.w3.org/2000/svg" xmlns:xlink="http://www.w3.org/1999/xlink" xml:space="preserve" xmlns:serif="http://www.serif.com/" style="fill-rule: evenodd; clip-rule: evenodd; stroke-linejoin: round; stroke-miterlimit: 2;">
               <path id="Combined-Shape" d="M12,24c6.627,0 12,-5.373 12,-12c0,-6.627 -5.373,-12 -12,-12c-6.627,0
                  -12,5.373 -12,12c0,6.627 5.373,12 12,12Zm6.591,-15.556l-0.722,0c-0.189,0
                  -0.681,0.208 -0.681,0.385l0,6.422c0,0.178 0.492,0.323
                  0.681,0.323l0.722,0l0,1.426l-4.675,0l0,-1.426l0.935,0l0,-6.655l-0.163,0l-2.251,8.081l-1.742,0l-2.222,-8.081l-0.168,0l0,6.655l0.935,0l0,1.426l-3.74,0l0,-1.426l0.519,0c0.203,0
                  0.416,-0.145 0.416,-0.323l0,-6.422c0,-0.177 -0.213,-0.385
                  -0.416,-0.385l-0.519,0l0,-1.426l4.847,0l1.583,5.704l0.042,0l1.598,-5.704l5.021,0l0,1.426Z"></path>
            </svg>